<?xml version="1.0" encoding="utf-8"?>
<!-- Generator: Adobe Illustrator 23.0.0, SVG Export Plug-In . SVG Version: 6.00 Build 0)  -->
<svg version="1.1" id="Layer_1" xmlns="http://www.w3.org/2000/svg" xmlns:xlink="http://www.w3.org/1999/xlink" x="0px" y="0px"
	 viewBox="0 0 70 70" style="enable-background:new 0 0 70 70;" xml:space="preserve">
<style type="text/css">
	.st0{filter:url(#Adobe_OpacityMaskFilter);}
	.st1{fill-rule:evenodd;clip-rule:evenodd;fill:#FFFFFF;}
	.st2{mask:url(#b_1_);}
	.st3{fill-rule:evenodd;clip-rule:evenodd;fill:url(#SVGID_1_);}
	.st4{fill-rule:evenodd;clip-rule:evenodd;fill:#FFFFFF;fill-opacity:0.383;}
	.st5{fill-rule:evenodd;clip-rule:evenodd;fill-opacity:0.383;}
	.st6{fill:#FFFFFF;}
	.st7{font-family:'Sarabun-Medium';}
	.st8{font-size:6.9007px;}
</style>
<g>
	<defs>
		<filter id="Adobe_OpacityMaskFilter" filterUnits="userSpaceOnUse" x="0" y="0" width="70" height="70">
			<feColorMatrix  type="matrix" values="1 0 0 0 0  0 1 0 0 0  0 0 1 0 0  0 0 0 1 0"/>
		</filter>
	</defs>
	<mask maskUnits="userSpaceOnUse" x="0" y="0" width="70" height="70" id="b_1_">
		<g class="st0">
			<path id="a_1_" class="st1" d="M4,0h61c4,0,5,1,5,5v60c0,4-1,5-5,5H4c-3,0-4-1-4-5V5C0,1,1,0,4,0z"/>
		</g>
	</mask>
	<g class="st2">
		
			<linearGradient id="SVGID_1_" gradientUnits="userSpaceOnUse" x1="-265.1429" y1="426.8571" x2="-266.1429" y2="425.8571" gradientTransform="matrix(70 0 0 -70 18630 29880)">
			<stop  offset="0" style="stop-color:#F37E5F"/>
			<stop  offset="0.5" style="stop-color:#EC1C24"/>
			<stop  offset="1" style="stop-color:#CF232A"/>
		</linearGradient>
		<path class="st3" d="M0,0h70v70H0V0z"/>
		<path class="st4" d="M4,1h61c2.7,0,4.3,0.7,5,2V0H0v3C0.7,1.7,2,1,4,1z"/>
		<path class="st5" d="M4,69h61c2.7,0,4.3-1,5-3v4H0v-4C0.7,68,2,69,4,69z"/>
		<g>
			<text transform="matrix(1 0 0 1 26.4677 13.9844)"><tspan x="0" y="0" class="st6 st7 st8">กรุงเทพ</tspan><tspan x="0" y="8.3" class="st6 st7 st8">Bangkok</tspan><tspan x="0" y="16.6" class="st6 st7 st8">สมุทรปราการ</tspan><tspan x="0" y="24.8" class="st6 st7 st8">Samut Prakan</tspan><tspan x="0" y="33.1" class="st6 st7 st8">นนทบุรี</tspan><tspan x="0" y="41.4" class="st6 st7 st8">Nonthaburi</tspan><tspan x="0" y="49.7" class="st6 st7 st8">...</tspan></text>
		</g>
		<g>
			<text transform="matrix(1 0 0 1 4.8294 13.9843)"><tspan x="0" y="0" class="st6 st7 st8">TH-10</tspan><tspan x="0" y="16.6" class="st6 st7 st8">TH-11</tspan><tspan x="0" y="33.1" class="st6 st7 st8">TH-12</tspan></text>
		</g>
	</g>
</g>
</svg>
